<svg width="1221" height="1080" viewBox="0 0 1221 1080" fill="none" xmlns="http://www.w3.org/2000/svg">
<path d="M607.647 675.527C539.19 648.724 505.423 571.501 532.226 503.044" stroke="white" stroke-width="5" stroke-linecap="round"/>
<path d="M1075.96 715.865C985.208 947.645 723.747 1061.97 491.966 971.226" stroke="white" stroke-width="5" stroke-linecap="round"/>
<path d="M827.917 673.354C895.245 578.508 872.938 447.04 778.092 379.712C683.246 312.384 551.779 334.692 484.451 429.538" stroke="#86FAF3" stroke-width="5" stroke-linecap="round"/>
<path d="M283.069 661.723C222.252 455.742 339.931 239.46 545.911 178.644" stroke="white" stroke-width="5" stroke-linecap="round"/>
<path d="M536.508 263.197C377.233 329.323 301.721 512.047 367.847 671.322C433.973 830.597 616.697 906.109 775.972 839.983" stroke="white" stroke-width="5" stroke-linecap="round"/>
<path d="M743.527 510.652C737.951 498.307 729.81 487.286 719.645 478.323C709.479 469.359 697.522 462.658 684.565 458.662C671.608 454.667 657.949 453.469 644.494 455.148" stroke="white" stroke-width="5" stroke-linecap="round"/>
<path d="M690.954 516.765C681.976 507.59 669.769 502.324 656.963 502.101C644.157 501.878 631.776 506.717 622.487 515.574" stroke="#86FAF3" stroke-width="5" stroke-linecap="round"/>
<circle cx="656.109" cy="551.61" r="12.8376" stroke="#86FAF3" stroke-width="5" stroke-linecap="round"/>
<path d="M1009.88 755.784C897.098 951.128 647.312 1018.06 451.969 905.276C256.625 792.494 189.695 542.709 302.477 347.365" stroke="#86FAF3" stroke-width="5" stroke-linecap="round"/>
<path d="M1014.95 550.999C1014.95 749.52 854.019 910.453 655.498 910.453C456.977 910.453 296.044 749.52 296.044 550.999" stroke="#86FAF3" stroke-width="5" stroke-linecap="round"/>
<path d="M1074.33 792.995C1207.66 562.056 1128.54 266.754 897.599 133.421C666.659 0.0878624 371.358 79.2137 238.025 310.153" stroke="#86FAF3" stroke-width="5" stroke-linecap="round"/>
<path d="M1073.64 550.999C1073.64 320.067 886.43 132.859 655.498 132.859" stroke="#7741CF" stroke-width="5" stroke-linecap="round"/>
<path d="M1090.76 550.999C1090.76 791.385 896.157 986.256 656.109 986.256C416.061 986.256 221.463 791.385 221.463 550.999" stroke="#86FAF3" stroke-width="5" stroke-linecap="round"/>
<path d="M895.386 410.469C817.456 278.358 647.184 234.436 515.073 312.367C382.962 390.297 339.04 560.569 416.97 692.68" stroke="#86FAF3" stroke-width="5" stroke-linecap="round"/>
<path d="M856.949 891.93C668.976 1002.81 426.705 940.319 315.822 752.346C204.939 564.372 267.434 322.101 455.407 211.218" stroke="#7B8085" stroke-opacity="0.5" stroke-width="5" stroke-linecap="round"/>
<path d="M770.066 744.642C663.438 807.541 526.009 772.091 463.11 665.462C400.212 558.834 435.662 421.405 542.29 358.507" stroke="#7741CF" stroke-width="5" stroke-linecap="round"/>
<path d="M1045.38 814.552C900.141 1029.5 608.151 1086.01 393.201 940.776C178.251 795.537 121.739 503.547 266.977 288.597" stroke="#7741CF" stroke-width="5" stroke-linecap="round"/>
<path d="M929.27 390.526C1018.27 541.404 968.109 735.864 817.231 824.865" stroke="#7741CF" stroke-width="7.07495" stroke-linecap="round"/>
<path d="M750.891 495.705C781.747 548.013 764.356 615.431 712.048 646.287C659.74 677.143 592.322 659.752 561.466 607.444" stroke="#7B8085" stroke-opacity="0.5" stroke-width="5" stroke-linecap="round"/>
<path d="M782.816 476.873C824.072 546.813 800.82 636.955 730.88 678.212C660.94 719.468 570.797 696.216 529.541 626.276" stroke="#86FAF3" stroke-width="5" stroke-linecap="round"/>
<path d="M745.843 703.579C661.894 753.099 553.695 725.189 504.174 641.24C454.654 557.29 482.564 449.091 566.513 399.57" stroke="#7741CF" stroke-width="5" stroke-linecap="round"/>
<circle cx="656.109" cy="551.61" r="509.227" stroke="#86FAF3" stroke-width="5" stroke-linecap="round"/>
<path d="M1090.76 550.999C1090.76 311.288 896.157 116.964 656.109 116.964C416.061 116.964 221.463 311.288 221.463 550.999" stroke="#86A0FA" stroke-width="5" stroke-linecap="round"/>
<path d="M655.498 894.559C467.105 894.559 314.383 741.289 314.383 552.222C314.383 363.154 467.105 209.885 655.498 209.885" stroke="#7B8085" stroke-opacity="0.5" stroke-width="5" stroke-linecap="round"/>
<path d="M655.498 1070.62C369.195 1070.62 137.101 837.977 137.101 550.999C137.101 264.022 369.195 31.3802 655.498 31.3802" stroke="#7741CF" stroke-width="5" stroke-linecap="round"/>
<path d="M746.381 214.932C932.304 264.75 1042.64 455.855 992.82 641.778C943.003 827.7 751.898 938.034 565.975 888.217" stroke="#7B8085" stroke-opacity="0.5" stroke-width="5" stroke-linecap="round"/>
<path d="M746.381 214.932C932.304 264.75 1042.64 455.855 992.82 641.778C943.003 827.7 751.898 938.034 565.975 888.217" stroke="#7B8085" stroke-opacity="0.5" stroke-width="5" stroke-linecap="round"/>
<path d="M1120.1 550.999C1120.1 295.083 912.363 87.6213 656.109 87.6213C399.855 87.6213 192.12 295.083 192.12 550.999" stroke="#7B8085" stroke-opacity="0.5" stroke-width="5" stroke-linecap="round"/>
<path d="M1120.1 550.999C1120.1 295.083 912.363 87.6213 656.109 87.6213C399.855 87.6213 192.12 295.083 192.12 550.999" stroke="#7B8085" stroke-opacity="0.5" stroke-width="5" stroke-linecap="round"/>
<path d="M359.705 413.202C435.922 249.616 630.32 178.789 793.906 255.006C957.493 331.222 1028.32 525.621 952.103 689.207" stroke="#86FAF3" stroke-width="5" stroke-linecap="round"/>
<path d="M738.316 693.619C816.598 648.423 843.42 548.324 798.223 470.042C753.027 391.76 652.928 364.938 574.646 410.135" stroke="#86FAF3" stroke-width="5" stroke-linecap="round"/>
<path d="M904.915 552.222C904.915 689.296 793.794 800.416 656.72 800.416C519.646 800.416 408.526 689.296 408.526 552.222" stroke="white" stroke-width="5" stroke-linecap="round"/>
<path d="M804.451 874.056C626.213 955.999 415.295 877.937 333.352 699.699" stroke="#7B8085" stroke-opacity="0.5" stroke-width="5" stroke-linecap="round"/>
<path d="M324.191 225.712C504.28 42.2413 799.004 39.4999 982.475 219.589" stroke="#7B8085" stroke-opacity="0.5" stroke-width="5" stroke-linecap="round"/>
<path d="M738.566 730.773C639.641 776.252 522.578 732.927 477.099 634.002C431.619 535.077 474.945 418.014 573.87 372.535" stroke="#7B8085" stroke-opacity="0.5" stroke-width="5" stroke-linecap="round"/>
<path d="M604.369 439.238C666.399 410.72 739.803 437.887 768.321 499.917" stroke="#7B8085" stroke-opacity="0.5" stroke-width="5" stroke-linecap="round"/>
<path d="M671.142 583.863C688.853 575.721 696.61 554.763 688.467 537.052" stroke="#7B8085" stroke-opacity="0.5" stroke-width="5" stroke-linecap="round"/>
<path d="M655.914 621.157C617.318 621.178 586.012 589.907 585.991 551.31" stroke="#7741CF" stroke-width="5" stroke-linecap="round"/>
<path d="M650.126 572.253C638.608 569.167 631.772 557.327 634.858 545.808C637.945 534.289 649.785 527.454 661.303 530.54" stroke="#86A0FA" stroke-width="5" stroke-linecap="round"/>
<path d="M413.937 441.012C475.068 307.26 633.052 248.389 766.804 309.52C900.556 370.651 959.427 528.635 898.296 662.387" stroke="#7741CF" stroke-width="5" stroke-linecap="round"/>
<path d="M552.288 191.886C750.94 134.634 958.39 249.261 1015.64 447.912C1072.89 646.564 958.266 854.014 759.615 911.266" stroke="#7741CF" stroke-width="5" stroke-linecap="round"/>
<path d="M640.792 498.357C611.153 506.899 594.05 537.851 602.592 567.49C611.134 597.13 642.086 614.232 671.726 605.69" stroke="#7741CF" stroke-width="5" stroke-linecap="round"/>
<path d="M656.162 969.408C887.023 969.447 1074.2 782.328 1074.24 551.467" stroke="#7741CF" stroke-width="5" stroke-linecap="round"/>
<path d="M656.015 843.901C494.576 843.874 363.726 712.98 363.753 551.541C363.78 390.102 494.674 259.252 656.114 259.279" stroke="#7741CF" stroke-width="5" stroke-linecap="round"/>
<path d="M772.998 470.847C816.815 534.601 799.945 622.291 735.318 666.709" stroke="white" stroke-width="5" stroke-linecap="round"/>
<path d="M881.199 104.68C1124.65 227.387 1221.17 526.921 1096.78 773.708C972.396 1020.5 674.202 1121.08 430.75 998.375" stroke="white" stroke-width="5" stroke-linecap="round"/>
<path d="M849.018 418.631C921.244 523.719 893.436 668.263 786.908 741.479C680.38 814.694 535.472 788.856 463.245 683.768" stroke="white" stroke-width="5" stroke-linecap="round"/>
<path d="M979.886 475.753C938.407 299.393 759.856 190.511 581.08 232.558" stroke="white" stroke-width="5" stroke-linecap="round"/>
<path d="M758.199 550.999C758.199 530.023 751.633 509.563 739.404 492.433C727.175 475.303 709.884 462.346 689.911 455.343C669.937 448.34 648.262 447.636 627.868 453.329C607.474 459.021 589.363 470.829 576.027 487.129" stroke="#7741CF" stroke-width="5" stroke-linecap="round"/>
</svg>
