<svg width="994" height="1013" viewBox="0 0 994 1013" fill="none" xmlns="http://www.w3.org/2000/svg">
<path d="M607.647 787.527C539.19 760.724 505.423 683.501 532.226 615.044" stroke="white" stroke-width="5" stroke-linecap="round"/>
<path d="M1075.96 827.865C985.208 1059.65 723.747 1173.97 491.966 1083.23" stroke="white" stroke-width="5" stroke-linecap="round"/>
<path d="M827.917 785.354C895.245 690.508 872.938 559.04 778.092 491.712C683.246 424.384 551.779 446.692 484.451 541.538" stroke="#86FAF3" stroke-width="5" stroke-linecap="round"/>
<path d="M283.069 773.723C222.252 567.742 339.931 351.46 545.911 290.644" stroke="white" stroke-width="5" stroke-linecap="round"/>
<path d="M536.508 375.197C377.233 441.323 301.721 624.047 367.847 783.322C433.973 942.597 616.697 1018.11 775.972 951.983" stroke="white" stroke-width="5" stroke-linecap="round"/>
<path d="M743.527 622.652C737.951 610.307 729.81 599.286 719.645 590.323C709.479 581.359 697.522 574.658 684.565 570.662C671.608 566.667 657.949 565.469 644.494 567.148" stroke="white" stroke-width="5" stroke-linecap="round"/>
<path d="M690.954 628.765C681.976 619.59 669.769 614.324 656.963 614.101C644.157 613.878 631.776 618.717 622.487 627.574" stroke="#86FAF3" stroke-width="5" stroke-linecap="round"/>
<circle cx="656.109" cy="663.61" r="12.8376" stroke="#86FAF3" stroke-width="5" stroke-linecap="round"/>
<path d="M1009.88 867.784C897.098 1063.13 647.312 1130.06 451.969 1017.28C256.625 904.494 189.695 654.709 302.477 459.365" stroke="#86FAF3" stroke-width="5" stroke-linecap="round"/>
<path d="M1014.95 662.999C1014.95 861.52 854.019 1022.45 655.498 1022.45C456.977 1022.45 296.044 861.52 296.044 662.999" stroke="#86FAF3" stroke-width="5" stroke-linecap="round"/>
<path d="M1074.33 904.995C1207.66 674.056 1128.54 378.754 897.599 245.421C666.659 112.088 371.358 191.214 238.025 422.153" stroke="#86FAF3" stroke-width="5" stroke-linecap="round"/>
<path d="M1073.64 662.999C1073.64 432.067 886.43 244.859 655.498 244.859" stroke="#7741CF" stroke-width="5" stroke-linecap="round"/>
<path d="M1090.76 662.999C1090.76 903.385 896.157 1098.26 656.109 1098.26C416.061 1098.26 221.463 903.385 221.463 662.999" stroke="#86FAF3" stroke-width="5" stroke-linecap="round"/>
<path d="M895.386 522.469C817.456 390.358 647.184 346.436 515.073 424.367C382.962 502.297 339.04 672.569 416.97 804.68" stroke="#86FAF3" stroke-width="5" stroke-linecap="round"/>
<path d="M856.949 1003.93C668.976 1114.81 426.705 1052.32 315.822 864.346C204.939 676.372 267.434 434.101 455.407 323.218" stroke="#7B8085" stroke-opacity="0.5" stroke-width="5" stroke-linecap="round"/>
<path d="M770.066 856.642C663.438 919.541 526.009 884.091 463.11 777.462C400.212 670.834 435.662 533.405 542.29 470.507" stroke="#7741CF" stroke-width="5" stroke-linecap="round"/>
<path d="M1045.38 926.552C900.141 1141.5 608.151 1198.01 393.201 1052.78C178.251 907.537 121.739 615.547 266.977 400.597" stroke="#7741CF" stroke-width="5" stroke-linecap="round"/>
<path d="M929.27 502.526C1018.27 653.404 968.109 847.864 817.231 936.865" stroke="#7741CF" stroke-width="7.07495" stroke-linecap="round"/>
<path d="M750.891 607.705C781.747 660.013 764.356 727.431 712.048 758.287C659.74 789.143 592.322 771.752 561.466 719.444" stroke="#7B8085" stroke-opacity="0.5" stroke-width="5" stroke-linecap="round"/>
<path d="M782.816 588.873C824.072 658.813 800.82 748.955 730.88 790.212C660.94 831.468 570.797 808.216 529.541 738.276" stroke="#86FAF3" stroke-width="5" stroke-linecap="round"/>
<path d="M745.843 815.579C661.894 865.099 553.695 837.189 504.174 753.24C454.654 669.29 482.564 561.091 566.513 511.57" stroke="#7741CF" stroke-width="5" stroke-linecap="round"/>
<circle cx="656.109" cy="663.61" r="509.227" stroke="#86FAF3" stroke-width="5" stroke-linecap="round"/>
<path d="M1090.76 662.999C1090.76 423.288 896.157 228.964 656.109 228.964C416.061 228.964 221.463 423.288 221.463 662.999" stroke="#86A0FA" stroke-width="5" stroke-linecap="round"/>
<path d="M655.498 1006.56C467.105 1006.56 314.383 853.289 314.383 664.222C314.383 475.154 467.105 321.885 655.498 321.885" stroke="#7B8085" stroke-opacity="0.5" stroke-width="5" stroke-linecap="round"/>
<path d="M655.498 1182.62C369.195 1182.62 137.101 949.977 137.101 662.999C137.101 376.022 369.195 143.38 655.498 143.38" stroke="#7741CF" stroke-width="5" stroke-linecap="round"/>
<path d="M746.381 326.932C932.304 376.75 1042.64 567.855 992.82 753.778C943.003 939.7 751.898 1050.03 565.975 1000.22" stroke="#7B8085" stroke-opacity="0.5" stroke-width="5" stroke-linecap="round"/>
<path d="M746.381 326.932C932.304 376.75 1042.64 567.855 992.82 753.778C943.003 939.7 751.898 1050.03 565.975 1000.22" stroke="#7B8085" stroke-opacity="0.5" stroke-width="5" stroke-linecap="round"/>
<path d="M1120.1 662.999C1120.1 407.083 912.363 199.621 656.109 199.621C399.855 199.621 192.12 407.083 192.12 662.999" stroke="#7B8085" stroke-opacity="0.5" stroke-width="5" stroke-linecap="round"/>
<path d="M1120.1 662.999C1120.1 407.083 912.363 199.621 656.109 199.621C399.855 199.621 192.12 407.083 192.12 662.999" stroke="#7B8085" stroke-opacity="0.5" stroke-width="5" stroke-linecap="round"/>
<path d="M359.705 525.202C435.922 361.616 630.32 290.789 793.906 367.006C957.493 443.222 1028.32 637.621 952.103 801.207" stroke="#86FAF3" stroke-width="5" stroke-linecap="round"/>
<path d="M738.316 805.619C816.598 760.423 843.42 660.324 798.223 582.042C753.027 503.76 652.928 476.938 574.646 522.135" stroke="#86FAF3" stroke-width="5" stroke-linecap="round"/>
<path d="M904.915 664.222C904.915 801.296 793.794 912.416 656.72 912.416C519.646 912.416 408.526 801.296 408.526 664.222" stroke="white" stroke-width="5" stroke-linecap="round"/>
<path d="M804.451 986.056C626.213 1068 415.295 989.937 333.352 811.699" stroke="#7B8085" stroke-opacity="0.5" stroke-width="5" stroke-linecap="round"/>
<path d="M324.191 337.712C504.28 154.241 799.004 151.5 982.475 331.589" stroke="#7B8085" stroke-opacity="0.5" stroke-width="5" stroke-linecap="round"/>
<path d="M738.566 842.773C639.641 888.252 522.578 844.927 477.099 746.002C431.619 647.077 474.945 530.014 573.87 484.535" stroke="#7B8085" stroke-opacity="0.5" stroke-width="5" stroke-linecap="round"/>
<path d="M604.369 551.238C666.399 522.72 739.803 549.887 768.321 611.917" stroke="#7B8085" stroke-opacity="0.5" stroke-width="5" stroke-linecap="round"/>
<path d="M671.142 695.863C688.853 687.721 696.61 666.763 688.467 649.052" stroke="#7B8085" stroke-opacity="0.5" stroke-width="5" stroke-linecap="round"/>
<path d="M655.914 733.157C617.318 733.178 586.012 701.907 585.991 663.31" stroke="#7741CF" stroke-width="5" stroke-linecap="round"/>
<path d="M650.126 684.253C638.608 681.167 631.772 669.327 634.858 657.808C637.945 646.289 649.785 639.454 661.303 642.54" stroke="#86A0FA" stroke-width="5" stroke-linecap="round"/>
<path d="M413.937 553.012C475.068 419.26 633.052 360.389 766.804 421.52C900.556 482.651 959.427 640.635 898.296 774.387" stroke="#7741CF" stroke-width="5" stroke-linecap="round"/>
<path d="M552.288 303.886C750.94 246.634 958.39 361.261 1015.64 559.912C1072.89 758.564 958.266 966.014 759.615 1023.27" stroke="#7741CF" stroke-width="5" stroke-linecap="round"/>
<path d="M640.792 610.357C611.153 618.899 594.05 649.851 602.592 679.49C611.134 709.13 642.086 726.232 671.726 717.69" stroke="#7741CF" stroke-width="5" stroke-linecap="round"/>
<path d="M656.162 1081.41C887.023 1081.45 1074.2 894.328 1074.24 663.467" stroke="#7741CF" stroke-width="5" stroke-linecap="round"/>
<path d="M656.015 955.901C494.576 955.874 363.726 824.98 363.753 663.541C363.78 502.102 494.674 371.252 656.114 371.279" stroke="#7741CF" stroke-width="5" stroke-linecap="round"/>
<path d="M772.997 582.847C816.815 646.601 799.945 734.291 735.318 778.709" stroke="white" stroke-width="5" stroke-linecap="round"/>
<path d="M881.199 216.68C1124.65 339.387 1221.17 638.921 1096.78 885.708C972.396 1132.5 674.202 1233.08 430.75 1110.37" stroke="white" stroke-width="5" stroke-linecap="round"/>
<path d="M849.018 530.631C921.244 635.719 893.436 780.263 786.908 853.479C680.38 926.694 535.472 900.856 463.245 795.768" stroke="white" stroke-width="5" stroke-linecap="round"/>
<path d="M979.886 587.753C938.407 411.393 759.856 302.511 581.08 344.558" stroke="white" stroke-width="5" stroke-linecap="round"/>
<path d="M758.199 662.999C758.199 642.023 751.633 621.563 739.404 604.433C727.175 587.303 709.884 574.346 689.911 567.343C669.937 560.34 648.262 559.636 627.868 565.329C607.474 571.021 589.363 582.829 576.027 599.129" stroke="#7741CF" stroke-width="5" stroke-linecap="round"/>
</svg>
